HIERARCHY
ROOT hip
{
  OFFSET 0 0 0
  CHANNELS 6 Xposition Yposition Zposition Zrotation Yrotation Xrotation
  JOINT abdomen
  {
    OFFSET 0 20.6881 -0.73152
    CHANNELS 3 Zrotation Xrotation Yrotation
    JOINT chest
    {
      OFFSET 0 11.7043 -0.48768
      CHANNELS 3 Zrotation Xrotation Yrotation
      JOINT neck
      {
        OFFSET 0 22.1894 -2.19456
        CHANNELS 3 Zrotation Xrotation Yrotation
        JOINT head
        {
          OFFSET -0.24384 7.07133 1.2192
          CHANNELS 3 Zrotation Xrotation Yrotation
          JOINT leftEye
          {
            OFFSET 4.14528 8.04674 8.04672
            CHANNELS 3 Zrotation Xrotation Yrotation
            End Site
            {
              OFFSET 1 0 0
            }
          }
          JOINT rightEye
          {
            OFFSET -3.6576 8.04674 8.04672
            CHANNELS 3 Zrotation Xrotation Yrotation
            End Site
            {
              OFFSET 1 0 0
            }
          }
        }
      }
      JOINT rCollar
      {
        OFFSET -2.68224 19.2634 -4.8768
        CHANNELS 3 Zrotation Xrotation Yrotation
        JOINT rShldr
        {
          OFFSET -8.77824 -1.95073 1.46304
          CHANNELS 3 Zrotation Xrotation Yrotation
          JOINT rForeArm
          {
            OFFSET -28.1742 -1.7115 0.48768
            CHANNELS 3 Zrotation Xrotation Yrotation
            JOINT rHand
            {
              OFFSET -22.5879 0.773209 7.07136
              CHANNELS 3 Zrotation Xrotation Yrotation
              JOINT rThumb1
              {
                OFFSET -1.2192 -0.487915 3.41376
                CHANNELS 3 Zrotation Xrotation Yrotation
                JOINT rThumb2
                {
                  OFFSET -3.37035 -0.52449 3.41376
                  CHANNELS 3 Zrotation Xrotation Yrotation
                  End Site
                  {
                    OFFSET -1.78271 -1.18214 1.43049
                  }
                }
              }
              JOINT rIndex1
              {
                OFFSET -7.75947 0.938293 5.60832
                CHANNELS 3 Zrotation Xrotation Yrotation
                JOINT rIndex2
                {
                  OFFSET -2.54057 -0.884171 1.56538
                  CHANNELS 3 Zrotation Xrotation Yrotation
                  End Site
                  {
                    OFFSET -1.62519 -0.234802 1.16502
                  }
                }
              }
              JOINT rMid1
              {
                OFFSET -8.24714 1.18213 3.41376
                CHANNELS 3 Zrotation Xrotation Yrotation
                JOINT rMid2
                {
                  OFFSET -3.10165 -0.590103 1.0647
                  CHANNELS 3 Zrotation Xrotation Yrotation
                  End Site
                  {
                    OFFSET -2.48547 -0.328903 0.83742
                  }
                }
              }
              JOINT rRing1
              {
                OFFSET -8.82822 0.546677 1.51678
                CHANNELS 3 Zrotation Xrotation Yrotation
                JOINT rRing2
                {
                  OFFSET -2.60934 -0.819778 -0.0198488
                  CHANNELS 3 Zrotation Xrotation Yrotation
                  End Site
                  {
                    OFFSET -2.33842 -0.294052 0.168128
                  }
                }
              }
              JOINT rPinky1
              {
                OFFSET -8.27202 -0.0477905 -0.4584
                CHANNELS 3 Zrotation Xrotation Yrotation
                JOINT rPinky2
                {
                  OFFSET -1.82734 -0.647385 -0.700984
                  CHANNELS 3 Zrotation Xrotation Yrotation
                  End Site
                  {
                    OFFSET -1.69225 -0.51767 -0.607171
                  }
                }
              }
            }
          }
        }
      }
      JOINT lCollar
      {
        OFFSET 2.68224 19.2634 -4.8768
        CHANNELS 3 Zrotation Xrotation Yrotation
        JOINT lShldr
        {
          OFFSET 8.77824 -1.95073 1.46304
          CHANNELS 3 Zrotation Xrotation Yrotation
          JOINT lForeArm
          {
            OFFSET 28.1742 -1.7115 0.48768
            CHANNELS 3 Zrotation Xrotation Yrotation
            JOINT lHand
            {
              OFFSET 22.5879 0.773209 7.07136
              CHANNELS 3 Zrotation Xrotation Yrotation
              JOINT lThumb1
              {
                OFFSET 1.2192 -0.487915 3.41376
                CHANNELS 3 Zrotation Xrotation Yrotation
                JOINT lThumb2
                {
                  OFFSET 3.37035 -0.52449 3.41376
                  CHANNELS 3 Zrotation Xrotation Yrotation
                  End Site
                  {
                    OFFSET 1.78271 -1.18214 1.43049
                  }
                }
              }
              JOINT lIndex1
              {
                OFFSET 7.75947 0.938293 5.60832
                CHANNELS 3 Zrotation Xrotation Yrotation
                JOINT lIndex2
                {
                  OFFSET 2.54057 -0.884171 1.56538
                  CHANNELS 3 Zrotation Xrotation Yrotation
                  End Site
                  {
                    OFFSET 1.62519 -0.234802 1.16502
                  }
                }
              }
              JOINT lMid1
              {
                OFFSET 8.24714 1.18213 3.41376
                CHANNELS 3 Zrotation Xrotation Yrotation
                JOINT lMid2
                {
                  OFFSET 3.10165 -0.590103 1.0647
                  CHANNELS 3 Zrotation Xrotation Yrotation
                  End Site
                  {
                    OFFSET 2.48547 -0.328903 0.83742
                  }
                }
              }
              JOINT lRing1
              {
                OFFSET 8.82822 0.546677 1.51678
                CHANNELS 3 Zrotation Xrotation Yrotation
                JOINT lRing2
                {
                  OFFSET 2.60934 -0.819778 -0.0198488
                  CHANNELS 3 Zrotation Xrotation Yrotation
                  End Site
                  {
                    OFFSET 2.33842 -0.294052 0.168128
                  }
                }
              }
              JOINT lPinky1
              {
                OFFSET 8.27202 -0.0477905 -0.4584
                CHANNELS 3 Zrotation Xrotation Yrotation
                JOINT lPinky2
                {
                  OFFSET 1.82734 -0.647385 -0.700984
                  CHANNELS 3 Zrotation Xrotation Yrotation
                  End Site
                  {
                    OFFSET 1.69225 -0.51767 -0.607171
                  }
                }
              }
            }
          }
        }
      }
    }
  }
  JOINT rButtock
  {
    OFFSET -8.77824 4.35084 1.2192
    CHANNELS 3 Zrotation Xrotation Yrotation
    JOINT rThigh
    {
      OFFSET 0 -1.70687 -2.19456
      CHANNELS 3 Zrotation Xrotation Yrotation
      JOINT rShin
      {
        OFFSET 0 -36.8199 0.73152
        CHANNELS 3 Zrotation Xrotation Yrotation
        JOINT rFoot
        {
          OFFSET 0.73152 -45.1104 -5.12064
          CHANNELS 3 Zrotation Xrotation Yrotation
          End Site
          {
            OFFSET -1.1221 -3.69964 12.103
          }
        }
      }
    }
  }
  JOINT lButtock
  {
    OFFSET 8.77824 4.35084 1.2192
    CHANNELS 3 Zrotation Xrotation Yrotation
    JOINT lThigh
    {
      OFFSET 0 -1.70687 -2.19456
      CHANNELS 3 Zrotation Xrotation Yrotation
      JOINT lShin
      {
        OFFSET 0 -36.8199 0.73152
        CHANNELS 3 Zrotation Xrotation Yrotation
        JOINT lFoot
        {
          OFFSET -0.73152 -45.1104 -5.12064
          CHANNELS 3 Zrotation Xrotation Yrotation
          End Site
          {
            OFFSET 1.1221 -3.69964 12.103
          }
        }
      }
    }
  }
}
MOTION
Frames:	7
Frame Time:	0.00833333
-29.6675 82.288 14.5049 -7.0128 29.2293 0.2624 7.24519 3.30119 2.69785 0.764728 -3.96461 0.783288 -9.02204 0.799365 -3.02581 7.76396 1.9421 -3.52912 -0.0 0.0 0.0 -0.0 0.0 0.0 1.77278e-15 -1.39909e-14 2.68173e-14 76.1726 12.6603 0.423842 -15.9718 -8.66171 29.6114 -0.000141879 -0.824048 -0.11581 -5.28988e-10 -4.14667e-10 1.14619e-09 -9.17066e-10 -7.19051e-10 1.98704e-09 -5.28985e-10 -4.14671e-10 1.14618e-09 7.73091 5.47488 0.417314 -5.28989e-10 -4.14666e-10 1.14618e-09 2.90554 0.965183 0.102902 -5.28983e-10 -4.14666e-10 1.14619e-09 10.2786 0.731801 0.0259123 -5.28991e-10 -4.14667e-10 1.1462e-09 2.22167 -0.733487 -0.20892 1.70605e-15 -1.39879e-14 2.64539e-14 -84.2086 -12.244 15.0635 8.08374 -3.05949 -14.2489 0.46602 20.2909 -2.95462 6.97019e-10 -1.13372e-09 6.22538e-10 1.22333e-09 -1.96874e-09 1.0643e-09 6.97016e-10 -1.13372e-09 6.22546e-10 -7.73091 5.47488 -0.417314 6.97017e-10 -1.13373e-09 6.22537e-10 -2.90554 0.965183 -0.102902 6.97011e-10 -1.13373e-09 6.22542e-10 -10.2786 0.731801 -0.0259123 6.97023e-10 -1.13373e-09 6.22535e-10 -2.22167 -0.733487 0.20892 -2.03217e-16 0.0 -3.88251e-19 4.91107 9.833 5.14135 -0.14515 28.697 0.581567 -0.766538 9.96032 2.16607 2.03217e-16 0.0 3.88251e-19 0.715893 -40.1412 1.13328 0.216842 30.1144 -0.19592 0.700517 0.314844 3.58275
-28.7967 82.1658 15.6444 -6.5741 29.9025 0.0533 6.50757 3.54068 2.2713 0.89167 -3.98632 0.647675 -9.15769 0.518684 -3.06842 7.83178 2.06973 -3.54722 -0.0 0.0 0.0 -0.0 0.0 0.0 -3.94253e-14 4.29215e-14 1.52039e-14 76.3952 11.9975 0.183435 -15.8489 -8.54802 29.3531 0.000153646 -0.348355 -0.0489549 -6.60751e-10 -4.66909e-10 1.47802e-09 -1.14623e-09 -8.09213e-10 2.56266e-09 -6.60745e-10 -4.66914e-10 1.47801e-09 7.73091 5.47488 0.417314 -6.6075e-10 -4.66909e-10 1.47801e-09 2.90554 0.965183 0.102902 -6.60744e-10 -4.6691e-10 1.47802e-09 10.2786 0.731801 0.0259123 -6.60756e-10 -4.66912e-10 1.47803e-09 2.22167 -0.733487 -0.20892 -3.95197e-14 4.29226e-14 1.48091e-14 -83.5548 -15.0013 15.2178 7.7855 -2.90276 -13.7062 0.75122 24.4537 -3.64801 6.90516e-10 -1.18945e-09 1.02431e-09 1.2208e-09 -2.06849e-09 1.75629e-09 6.90513e-10 -1.18945e-09 1.02432e-09 -7.73091 5.47488 -0.417314 6.90514e-10 -1.18946e-09 1.0243e-09 -2.90554 0.965183 -0.102902 6.90508e-10 -1.18946e-09 1.02431e-09 -10.2786 0.731801 -0.0259123 6.90518e-10 -1.18946e-09 1.02431e-09 -2.22167 -0.733487 0.20892 -2.03217e-16 0.0 -3.88251e-19 4.40672 7.93377 5.13419 -0.200416 32.4999 0.609932 -1.11394 13.5734 3.65801 2.03217e-16 0.0 3.88251e-19 -0.133067 -39.4118 1.50009 0.231363 30.7395 -0.137948 0.626712 0.785676 3.06726
-27.9294 82.1994 16.7757 -6.1564 30.38 -0.0999 5.7796 3.83424 1.9046 1.03436 -3.96911 0.528281 -9.25796 0.234855 -3.10563 7.83596 2.07726 -3.55642 -0.0 0.0 0.0 -0.0 0.0 0.0 -6.11728e-14 7.91163e-14 1.98785e-16 76.5433 11.5168 -0.00961764 -15.7411 -8.44884 29.1278 -2.78641e-05 -0.150719 -0.0211822 -6.47605e-10 -4.79895e-10 1.52028e-09 -1.12392e-09 -8.31556e-10 2.63626e-09 -6.47599e-10 -4.799e-10 1.52026e-09 7.73091 5.47488 0.417314 -6.47604e-10 -4.79896e-10 1.52027e-09 2.90554 0.965183 0.102902 -6.47597e-10 -4.79897e-10 1.52028e-09 10.2786 0.731801 0.0259123 -6.47613e-10 -4.79899e-10 1.52029e-09 2.22167 -0.733487 -0.20892 -6.12825e-14 7.91165e-14 -1.98785e-16 -83.2813 -16.5572 15.1643 7.6234 -2.8175 -13.4141 0.985086 26.9854 -4.10383 6.49664e-10 -1.09444e-09 1.2511e-09 1.15442e-09 -1.90575e-09 2.14736e-09 6.4966e-10 -1.09445e-09 1.25111e-09 -7.73091 5.47488 -0.417314 6.49662e-10 -1.09445e-09 1.25109e-09 -2.90554 0.965183 -0.102902 6.49656e-10 -1.09445e-09 1.2511e-09 -10.2786 0.731801 -0.0259123 6.49665e-10 -1.09445e-09 1.2511e-09 -2.22167 -0.733487 0.20892 -2.03217e-16 0.0 -3.88251e-19 3.87857 5.96292 5.03899 -0.263917 36.2623 0.649527 -1.51648 16.7627 4.74418 2.03217e-16 0.0 3.88251e-19 -0.908596 -38.6823 1.88616 0.244901 31.3581 -0.0853539 0.568477 0.992234 2.4503
-27.0536 82.2573 17.8601 -5.729 30.8411 -0.1814 5.1157 4.22034 1.63075 1.19437 -3.89045 0.434324 -9.31253 -0.0746316 -3.139 7.726 1.92156 -3.55648 -0.0 0.0 0.0 -0.0 0.0 0.0 -5.15129e-14 8.44549e-14 -4.2036e-14 76.5867 11.2599 -0.152889 -15.6632 -8.37751 28.966 0.000176999 -0.364141 -0.0511733 -3.31056e-10 -4.7065e-10 1.03747e-09 -5.75351e-10 -8.15695e-10 1.79974e-09 -3.3105e-10 -4.70655e-10 1.03745e-09 7.73091 5.47488 0.417314 -3.31055e-10 -4.70652e-10 1.03746e-09 2.90554 0.965183 0.102902 -3.31047e-10 -4.70653e-10 1.03746e-09 10.2786 0.731801 0.0259123 -3.31066e-10 -4.70653e-10 1.03747e-09 2.22167 -0.733487 -0.20892 -5.16174e-14 8.44563e-14 -4.23901e-14 -83.5692 -16.5414 14.7921 7.6524 -2.83152 -13.4678 1.02756 27.2884 -4.16457 5.82297e-10 -6.47056e-10 1.18185e-09 1.0348e-09 -1.13061e-09 2.02864e-09 5.82294e-10 -6.47057e-10 1.18186e-09 -7.73091 5.47488 -0.417314 5.82296e-10 -6.47059e-10 1.18185e-09 -2.90554 0.965183 -0.102902 5.82289e-10 -6.47058e-10 1.18186e-09 -10.2786 0.731801 -0.0259123 5.82298e-10 -6.47059e-10 1.18185e-09 -2.22167 -0.733487 0.20892 -2.03217e-16 0.0 -3.88251e-19 3.34566 3.88759 4.85492 -0.341533 40.03 0.703734 -1.85037 19.7999 5.23492 2.03217e-16 0.0 3.88251e-19 -1.53239 -37.9752 2.32436 0.259065 32.0092 -0.0370191 0.514677 0.838978 1.64076
-26.196 82.248 18.9054 -5.1555 31.2421 -0.1721 4.44746 4.71112 1.40729 1.38226 -3.76143 0.354087 -9.34847 -0.430003 -3.17138 7.55654 1.64044 -3.54581 -0.0 0.0 0.0 -0.0 0.0 0.0 -2.16506e-14 7.31758e-14 -1.09381e-13 76.5638 11.1474 -0.249961 -15.6033 -8.3229 28.8417 -0.000182512 -0.836717 -0.117592 2.40596e-10 -4.46823e-10 1.55165e-10 4.15483e-10 -7.74626e-10 2.70784e-10 2.40601e-10 -4.46827e-10 1.55151e-10 7.73091 5.47488 0.417314 2.40596e-10 -4.46824e-10 1.55158e-10 2.90554 0.965183 0.102902 2.40604e-10 -4.46825e-10 1.55158e-10 10.2786 0.731801 0.0259123 2.40583e-10 -4.46824e-10 1.5516e-10 2.22167 -0.733487 -0.20892 -2.17387e-14 7.31794e-14 -1.09661e-13 -84.2003 -15.5453 14.1918 7.81178 -2.91366 -13.7576 0.939653 26.2197 -3.97429 5.0224e-10 1.21566e-10 9.17451e-10 8.88311e-10 2.02228e-10 1.57363e-09 5.02237e-10 1.21567e-10 9.17458e-10 -7.73091 5.47488 -0.417314 5.02239e-10 1.21565e-10 9.17447e-10 -2.90554 0.965183 -0.102902 5.02232e-10 1.21565e-10 9.1745e-10 -10.2786 0.731801 -0.0259123 5.0224e-10 1.21565e-10 9.17442e-10 -2.22167 -0.733487 0.20892 -2.03217e-16 0.0 -3.88251e-19 2.78192 1.66377 4.62569 -0.437503 43.9184 0.77463 -2.07856 22.7858 5.29592 2.03217e-16 0.0 3.88251e-19 -2.07236 -37.2319 2.82297 0.273472 32.6484 0.0113755 0.450456 0.403294 0.693606
-25.3691 82.1936 20.006 -4.6727 31.6132 -0.2775 3.70401 5.21105 1.19183 1.58733 -3.62442 0.275675 -9.36844 -0.765457 -3.19715 7.40032 1.30258 -3.52624 -0.0 0.0 0.0 -0.0 0.0 0.0 9.91457e-15 5.74119e-14 -1.49791e-13 76.5231 11.1454 -0.305673 -15.538 -8.26424 28.7051 -0.00187263 -1.38312 -0.194415 7.46958e-10 -3.64369e-10 -6.90938e-10 1.2933e-09 -6.31972e-10 -1.19561e-09 7.46962e-10 -3.64373e-10 -6.90949e-10 7.73091 5.47488 0.417314 7.46958e-10 -3.6437e-10 -6.90945e-10 2.90554 0.965183 0.102902 7.46966e-10 -3.64371e-10 -6.90946e-10 10.2786 0.731801 0.0259123 7.46942e-10 -3.64367e-10 -6.90949e-10 2.22167 -0.733487 -0.20892 9.84299e-15 5.74172e-14 -1.49993e-13 -84.9204 -13.9501 13.4929 8.02741 -3.02605 -14.1509 0.803391 24.4943 -3.6733 3.81496e-10 7.81084e-10 6.54605e-10 6.71316e-10 1.3465e-09 1.12221e-09 3.81493e-10 7.81086e-10 6.54608e-10 -7.73091 5.47488 -0.417314 3.81495e-10 7.81084e-10 6.546e-10 -2.90554 0.965183 -0.102902 3.81487e-10 7.81085e-10 6.546e-10 -10.2786 0.731801 -0.0259123 3.81495e-10 7.81084e-10 6.5459e-10 -2.22167 -0.733487 0.20892 -2.03217e-16 0.0 -3.88251e-19 2.12678 -0.604857 4.32473 -0.54839 47.7377 0.863499 -2.17101 25.0671 5.14289 2.03217e-16 0.0 3.88251e-19 -2.65924 -36.4455 3.29927 0.285635 33.2216 0.0537052 0.375541 -0.159237 -0.227324
-24.4899 82.1574 21.057 -3.8199 31.9745 -0.1066 2.81433 5.62456 0.941941 1.79874 -3.5218 0.187179 -9.37484 -1.0152 -3.2106 7.33 0.976666 -3.49954 -0.0 0.0 0.0 -0.0 0.0 0.0 2.4683e-14 4.92961e-14 -1.1122e-13 76.5124 11.2199 -0.324729 -15.4436 -8.18044 28.5067 -0.0040554 -1.81803 -0.255594 8.67639e-10 -1.79243e-10 -1.06515e-09 1.50282e-09 -3.11354e-10 -1.84444e-09 8.67643e-10 -1.79247e-10 -1.06516e-09 7.73091 5.47488 0.417314 8.6764e-10 -1.79245e-10 -1.06515e-09 2.90554 0.965183 0.102902 8.67647e-10 -1.79246e-10 -1.06515e-09 10.2786 0.731801 0.0259123 8.67623e-10 -1.79241e-10 -1.06516e-09 2.22167 -0.733487 -0.20892 2.46172e-14 4.93007e-14 -1.11369e-13 -85.4965 -12.1431 12.8143 8.22647 -3.13126 -14.5151 0.684961 22.8289 -3.39167 1.92069e-10 9.01159e-10 5.90028e-10 3.40161e-10 1.55597e-09 1.01429e-09 1.92066e-10 9.0116e-10 5.90028e-10 -7.73091 5.47488 -0.417314 1.92069e-10 9.0116e-10 5.90022e-10 -2.90554 0.965183 -0.102902 1.9206e-10 9.0116e-10 5.9002e-10 -10.2786 0.731801 -0.0259123 1.92069e-10 9.01159e-10 5.90009e-10 -2.22167 -0.733487 0.20892 -2.03217e-16 0.0 -3.88251e-19 1.3171 -2.81463 3.92353 -0.66924 51.2983 0.970253 -2.15605 25.9848 5.00336 2.03217e-16 0.0 3.88251e-19 -3.41852 -35.61 3.67384 0.293524 33.6745 0.0835904 0.304976 -0.692649 -0.958472
